<svg width="64" height="94" viewBox="0 0 64 94" fill="none" xmlns="http://www.w3.org/2000/svg">
<g filter="url(#filter0_d_94_444)">
<path fill-rule="evenodd" clip-rule="evenodd" d="M4.66311 34.4433C4.76907 34.393 4.88764 34.3649 5.01277 34.3651L10.4122 34.3742L10.4632 13.4712H8.87183C8.53512 13.4712 8.26217 13.1982 8.26217 12.8615V9.20361C8.26217 8.86691 8.53512 8.59396 8.87183 8.59396H10.4751L10.4907 2.22994C10.4937 0.995369 11.4969 -0.00300598 12.7315 7.62939e-06L57.2434 0.108681C58.4752 0.111687 59.4724 1.11055 59.4734 2.34232L59.5005 36.7316C59.5012 37.6533 58.9361 38.4809 58.0775 38.8159L48.3886 42.5955C48.2145 42.6634 48.2166 42.9104 48.3917 42.9754L57.7771 46.4571C58.6528 46.782 59.2342 47.6171 59.235 48.5511L59.2624 82.8165C59.2634 84.0539 58.259 85.0567 57.0216 85.0537L12.5241 84.9451C11.2895 84.9421 10.2912 83.9388 10.2942 82.7042L10.3089 76.6721H8.87183C8.53512 76.6721 8.26217 76.3992 8.26217 76.0625V72.4045C8.26217 72.0678 8.53512 71.7949 8.87183 71.7949H10.3208L10.372 50.8319L4.99561 50.8229C4.95741 50.8286 4.91834 50.8316 4.87859 50.8318C4.83385 50.8319 4.78995 50.8285 4.74715 50.8217C4.57063 50.8129 4.41395 50.729 4.3083 50.6013C4.15768 50.4546 4.06378 50.2498 4.06282 50.0229L4.00001 35.2454C3.99831 34.8466 4.28436 34.5136 4.66311 34.4433ZM5.68398 49.1994L5.62784 35.9908L10.4082 35.9988L10.376 49.2073L5.68398 49.1994Z" fill="#272727"/>
</g>
<defs>
<filter id="filter0_d_94_444" x="0" y="0" width="63.5005" height="93.0537" filterUnits="userSpaceOnUse" color-interpolation-filters="sRGB">
<feFlood flood-opacity="0" result="BackgroundImageFix"/>
<feColorMatrix in="SourceAlpha" type="matrix" values="0 0 0 0 0 0 0 0 0 0 0 0 0 0 0 0 0 0 127 0" result="hardAlpha"/>
<feOffset dy="4"/>
<feGaussianBlur stdDeviation="2"/>
<feComposite in2="hardAlpha" operator="out"/>
<feColorMatrix type="matrix" values="0 0 0 0 0 0 0 0 0 0 0 0 0 0 0 0 0 0 0.25 0"/>
<feBlend mode="normal" in2="BackgroundImageFix" result="effect1_dropShadow_94_444"/>
<feBlend mode="normal" in="SourceGraphic" in2="effect1_dropShadow_94_444" result="shape"/>
</filter>
</defs>
</svg>
